<?xml version="1.0" standalone="no"?>
<!DOCTYPE svg PUBLIC "-//W3C//DTD SVG 20010904//EN"
 "http://www.w3.org/TR/2001/REC-SVG-20010904/DTD/svg10.dtd">
<svg version="1.0" xmlns="http://www.w3.org/2000/svg"
 width="700.000000pt" height="700.000000pt" viewBox="0 0 700.000000 700.000000"
 preserveAspectRatio="xMidYMid meet">
<metadata>
Created by potrace 1.11, written by Peter Selinger 2001-2013
</metadata>
<g transform="translate(0.000000,700.000000) scale(0.100000,-0.100000)"
fill="#000000" stroke="none">
<path d="M3417 6594 c-1 -1 -60 -4 -132 -8 -71 -3 -141 -8 -155 -10 -30 -5
-98 -14 -160 -21 -25 -3 -52 -7 -60 -10 -8 -2 -35 -7 -60 -10 -212 -30 -537
-129 -760 -233 -134 -62 -430 -242 -512 -311 -13 -10 -54 -45 -93 -77 -433
-359 -776 -885 -967 -1484 -40 -126 -103 -373 -123 -485 -10 -49 -19 -97 -20
-106 -2 -9 -6 -34 -9 -55 -3 -22 -8 -50 -11 -64 -2 -14 -7 -45 -9 -70 -3 -25
-7 -61 -10 -80 -30 -211 -48 -731 -32 -911 3 -30 8 -86 11 -124 3 -39 7 -81
10 -95 2 -14 6 -47 10 -74 5 -40 31 -175 50 -260 58 -257 220 -600 381 -807
40 -51 222 -227 274 -265 242 -178 530 -269 820 -259 63 2 126 7 140 10 14 3
39 8 55 11 60 10 197 62 251 95 123 75 224 190 284 325 27 59 90 258 104 327
3 12 16 78 30 145 24 113 78 410 111 607 8 44 21 118 29 165 8 47 22 123 31
170 17 96 19 105 41 215 21 102 26 109 84 101 210 -29 367 -181 573 -556 13
-25 38 -70 54 -100 17 -30 65 -122 108 -205 160 -310 331 -617 347 -623 4 -2
8 -8 8 -14 0 -29 165 -244 260 -338 228 -228 528 -341 889 -335 154 3 205 9
346 45 320 80 517 210 895 589 223 224 266 293 290 459 11 74 5 245 -10 302
-23 88 -100 162 -161 155 -72 -8 -124 -51 -399 -325 -324 -325 -478 -413 -710
-405 -108 4 -136 10 -216 42 -190 75 -334 258 -589 748 -147 281 -265 467
-362 572 -81 87 -155 138 -324 223 l-163 83 159 52 c174 57 267 95 390 160
263 138 479 318 677 563 71 88 201 312 238 412 7 19 19 51 26 70 16 41 54 173
59 204 5 27 12 78 21 141 4 28 7 113 7 190 0 155 -7 253 -27 380 -7 44 -57
175 -101 265 -142 289 -340 493 -625 642 -76 40 -277 124 -319 133 -9 2 -70
18 -136 35 -66 17 -136 33 -155 36 -19 3 -46 7 -60 9 -14 3 -47 7 -75 11 -27
3 -61 8 -75 10 -75 9 -434 24 -443 18z m22 -749 c451 -28 794 -240 921 -566
16 -42 31 -87 34 -100 3 -13 8 -37 11 -54 35 -170 19 -400 -41 -580 -104 -313
-318 -553 -629 -705 -170 -84 -351 -131 -561 -146 -71 -5 -84 -4 -84 9 0 20
80 479 105 607 5 26 32 181 41 235 3 17 7 37 9 45 2 8 6 35 9 60 3 25 8 54 10
66 9 43 18 131 22 194 6 121 -45 248 -118 297 -102 68 -357 74 -527 11 -129
-48 -211 -132 -255 -261 -36 -106 -126 -499 -152 -662 -3 -21 -8 -47 -10 -59
-7 -32 -12 -65 -23 -136 -6 -36 -13 -74 -15 -85 -4 -21 -12 -72 -22 -139 -3
-21 -7 -46 -9 -55 -1 -9 -6 -36 -10 -61 -11 -67 -14 -82 -17 -85 -2 -2 -61 -5
-133 -7 -95 -3 -139 -9 -165 -21 -46 -22 -138 -110 -176 -166 -27 -42 -29 -50
-29 -150 0 -100 2 -111 32 -172 50 -100 124 -157 235 -180 69 -14 108 -29 109
-43 3 -25 1 -46 -20 -156 -12 -63 -25 -128 -28 -145 -2 -16 -22 -124 -43 -240
-22 -115 -42 -226 -45 -245 -28 -163 -104 -449 -130 -490 -123 -194 -341 -88
-509 248 -67 133 -132 359 -152 522 -3 30 -8 57 -9 60 -26 44 -26 863 -1 1020
3 14 7 50 10 80 12 106 18 146 41 270 13 69 26 134 29 145 151 665 490 1196
971 1523 230 156 520 261 821 297 33 4 68 9 79 12 11 2 83 7 160 10 77 3 142
7 143 8 2 2 9 2 15 0 7 -2 54 -6 106 -10z"/>
</g>
</svg>
